<svg xmlns="http://www.w3.org/2000/svg" width="171.5" height="52" viewBox="0 0 171.5 52">
  <g id="LOGO" transform="translate(384.831 -211.151)">
    <path id="Tracé_25" data-name="Tracé 25" d="M906.868,456.6a1.556,1.556,0,0,1,1.041-.931c.154-.044.311-.084.459-.143s.186-.23.132-.417a.207.207,0,0,0-.227-.155,2.485,2.485,0,0,0-2,.944,2.912,2.912,0,0,0-.567,1.743c-.017.461,0,.924-.018,1.385-.005.179-.087.252-.265.261-.22.011-.442,0-.662.019a.231.231,0,0,0-.214.246.236.236,0,0,0,.194.263c.179.016.36.013.541.019.393.013.407.027.418.41,0,.12,0,.241,0,.362v3.676h0c0,1.326.006,2.651,0,3.977,0,.563.034.588.632.567.265-.009.337-.092.356-.377.008-.12,0-.241,0-.361q0-3.736,0-7.472c0-.141,0-.281,0-.422.013-.306.058-.359.349-.368.321-.01.643,0,.964-.007a1.775,1.775,0,0,0,.359-.023.206.206,0,0,0,.148-.23c0-.108-.029-.214-.134-.243a1.409,1.409,0,0,0-.358-.029c-.341,0-.683,0-1.024-.007-.212-.007-.3-.09-.3-.3-.005-.542-.011-1.085.014-1.626A2.291,2.291,0,0,1,906.868,456.6Z" transform="translate(-1127.437 -213.181)" fill="#00608f"/>
    <path id="Tracé_26" data-name="Tracé 26" d="M954.921,487.953c-.521.025-1.041.055-1.56.1a4.856,4.856,0,0,0-1.562.411.506.506,0,0,0-.355.545c.013,1.385.006,2.771.006,4.156q0,1.957,0,3.915c0,.12,0,.241,0,.361a.23.23,0,0,0,.225.237c.691.038.8.023.786-.68,0-.02,0-.04,0-.06q0-3.523,0-7.047c0-.181.011-.362,0-.542a.448.448,0,0,1,.363-.479,3.5,3.5,0,0,1,1.661-.161c.383.054.409.04.534-.29.028-.075.053-.152.074-.229C955.135,488.042,955.073,487.946,954.921,487.953Z" transform="translate(-1168.438 -242.035)" fill="#00608f"/>
    <path id="Tracé_27" data-name="Tracé 27" d="M-382.3,256.5a3.554,3.554,0,0,0,2.863-.254,3.416,3.416,0,0,0,1.838-2.541,6.321,6.321,0,0,0,.082-1.08q-.006-8.986,0-17.972c0-.161-.005-.322,0-.482.01-.217.079-.292.293-.293.523,0,1.045,0,1.568.011,1.025.017,2.049.052,3.074.051a.816.816,0,0,1,.747.383c1.078,1.5,3.271,4.478,3.271,4.478s16.8,22.724,17,23a3.426,3.426,0,0,0,5.321.163,3.2,3.2,0,0,0,.307-3.814c-.224-.356-17.488-23.814-18.135-24.709-.4-.56-.395-.6.248-.787a22.025,22.025,0,0,0,3.177-1.249c.4-.187.751-.463,1.135-.673a10.653,10.653,0,0,0,4.732-5.116,9.5,9.5,0,0,0,.585-4.361,8.776,8.776,0,0,0-2.8-6.138,12.841,12.841,0,0,0-4.837-2.829,19.047,19.047,0,0,0-6.138-1.1c-5.443-.055-10.888-.019-16.331-.015-.186,0-.414-.078-.531.165.008.2.022.4.022.6q0,20.468,0,40.937c0,.2-.017.4-.026.6h0c.14.354.179.737.339,1.089A3.49,3.49,0,0,0-382.3,256.5Zm4.989-42.638c.1-.008.2-.006.3-.006,2.01,0,4.021-.014,6.032.008a9.933,9.933,0,0,1,3.872.8,8.028,8.028,0,0,1,4.307,4.182,8.4,8.4,0,0,1,.7,4,8.016,8.016,0,0,1-4,6.574,12.051,12.051,0,0,1-4.745,1.66,25.294,25.294,0,0,1-3.548.194c-.865.005-1.729,0-2.594.006-.1,0-.2,0-.3,0-.188-.012-.256-.08-.254-.259,0-.241.016-.482.016-.723q0-3.891,0-7.781h-.032q0-3.558,0-7.116c0-.422,0-.844,0-1.265C-377.561,213.953-377.491,213.876-377.314,213.862Z" fill="#00608f"/>
    <path id="Tracé_28" data-name="Tracé 28" d="M332.316,314.663a8.888,8.888,0,0,0-1.913-2.614,15.157,15.157,0,0,0-3.552-2.466c-1.825-.938-3.723-1.713-5.613-2.5a36.167,36.167,0,0,1-3.514-1.585,13.2,13.2,0,0,1-2.433-1.665,4.554,4.554,0,0,1-1.7-3.025,3.436,3.436,0,0,1,.7-2.487,4.81,4.81,0,0,1,1.733-1.372,8.374,8.374,0,0,1,3.613-.831,9.169,9.169,0,0,1,6.1,2.056,12.467,12.467,0,0,1,1.694,1.625c.393.457.792.908,1.142,1.4a1.541,1.541,0,0,0,1.279.684,1.489,1.489,0,0,0,1.428-.837,1.343,1.343,0,0,0-.149-1.578,19.926,19.926,0,0,0-2.947-3.011,10.893,10.893,0,0,0-4.172-2.085,15.608,15.608,0,0,0-2.8-.382,16.13,16.13,0,0,0-5.085.438,12.573,12.573,0,0,0-3.576,1.563.4.4,0,0,1-.359.254h0c-.35.3-.717.585-1.047.907a8.133,8.133,0,0,0-2.285,3.968,8.8,8.8,0,0,0-.126,3.116,6.727,6.727,0,0,0,.3,1.348,8.392,8.392,0,0,0,1.663,2.844,13.229,13.229,0,0,0,3.69,2.875c2.061,1.14,4.225,2.062,6.362,3.044a19.3,19.3,0,0,1,2.293,1.206,9.5,9.5,0,0,1,2.413,2.072,4.391,4.391,0,0,1,.936,2.063,3.991,3.991,0,0,1-1.261,3.773,5.961,5.961,0,0,1-1.383.957,8.492,8.492,0,0,1-5.458.729,11.669,11.669,0,0,1-4.735-2.009,16.354,16.354,0,0,1-5.259-6.334,21.19,21.19,0,0,1-1.27-3.381c-.347-1.2-.656-2.4-.982-3.6a25.557,25.557,0,0,0-1.159-3.486,9.619,9.619,0,0,0-3.431-4.26,8.081,8.081,0,0,0-3.848-1.461,11.467,11.467,0,0,0-3.243.165,18.378,18.378,0,0,0-7.363,3.158,12.168,12.168,0,0,0-2.437,2.236c-.225.283-.427.583-.645.871a.227.227,0,0,1-.144.1c-.086,0-.132-.074-.153-.156l-.015-.058a7.561,7.561,0,0,0-2.318-3.6,9.985,9.985,0,0,0-2.971-1.926,9.368,9.368,0,0,0-6.942-.3,21.584,21.584,0,0,0-5.492,2.718,26,26,0,0,0-3.636,2.972c-.111.109-.209.326-.364.27-.207-.074-.108-.316-.109-.483-.007-1.709,0-3.418-.008-5.127a3.084,3.084,0,0,0-.973-2.262,3.239,3.239,0,0,0-3.122-.847,3.1,3.1,0,0,0-2.317,2.08,4.035,4.035,0,0,0-.185,1.427q.011,4.584.026,9.168.007,3.861,0,7.721,0,5.188,0,10.376c0,.5,0,1,.015,1.507a2.545,2.545,0,0,0,.424,1.3,3.337,3.337,0,0,0,5.945-.574,3.649,3.649,0,0,0,.191-1.241q-.008-9.8,0-19.6c0-.221.008-.443,0-.664a.751.751,0,0,1,.207-.546,8.675,8.675,0,0,1,.9-.89,14.758,14.758,0,0,1,4.261-2.578,12.6,12.6,0,0,1,3.441-.853,5.4,5.4,0,0,1,2.712.412,6.513,6.513,0,0,1,3.44,3.621,6.711,6.711,0,0,1,.495,2.71c-.012,2.031,0,4.062,0,6.093q0,3.348,0,6.7a3.358,3.358,0,0,0,.227,1.3,3.16,3.16,0,0,0,2.4,1.992,3.271,3.271,0,0,0,3.929-2.654,5.913,5.913,0,0,0,.054-.9q0-6.907,0-13.814c0-.181.005-.362,0-.543a1.02,1.02,0,0,1,.219-.671,7.14,7.14,0,0,1,1.344-1.376,13.112,13.112,0,0,1,4.686-2.41,11.156,11.156,0,0,1,3.33-.478,5.179,5.179,0,0,1,2.622.793,6.469,6.469,0,0,1,2.491,3.024,20.3,20.3,0,0,1,.78,2.152,40.559,40.559,0,0,0,1.429,4.033,27.011,27.011,0,0,0,2.356,4.338,19.4,19.4,0,0,0,2.279,2.8,19.1,19.1,0,0,0,3.331,2.768,19.563,19.563,0,0,0,3.385,1.71,18.811,18.811,0,0,0,5.188,1.283,11.809,11.809,0,0,0,2.227.065c.779-.076,1.56-.132,2.336-.262a30.3,30.3,0,0,0,3.533-.758,12.509,12.509,0,0,0,4.064-1.925,8.392,8.392,0,0,0,2.271-2.467,9.257,9.257,0,0,0,1.229-5.265A6.649,6.649,0,0,0,332.316,314.663Z" transform="translate(-559.61 -72.402)" fill="#00608f"/>
    <path id="Tracé_29" data-name="Tracé 29" d="M-82.257,309.052a13.34,13.34,0,0,0-4.461-6.52,14.444,14.444,0,0,0-6.043-2.87,17.77,17.77,0,0,0-5.638-.243,13.9,13.9,0,0,0-2.421.467,14.98,14.98,0,0,0-3.593,1.53,14.944,14.944,0,0,0-3.658,3.019,17.1,17.1,0,0,0-3.5,6.535,21.614,21.614,0,0,0-.76,7.278,12.854,12.854,0,0,0,.244,1.79,16.134,16.134,0,0,0,2.01,5.01,5.994,5.994,0,0,0,1.656,1.893,5.057,5.057,0,0,0,4.481.721,2.571,2.571,0,0,0,1.863-1.81,2.744,2.744,0,0,0-.164-1.884,9.483,9.483,0,0,0-.949-1.675c-.5-.75-1.014-1.5-1.5-2.263a8.6,8.6,0,0,1-1.334-3.775,26.387,26.387,0,0,1-.132-2.89c.009-.722-.089-.713.725-.713q5.729,0,11.458,0h11.579c.141,0,.282,0,.422-.007.17-.013.245-.1.254-.273a2.808,2.808,0,0,0-.006-.3A12.65,12.65,0,0,0-82.257,309.052Zm-8.5,1.1q-7.229,0-14.457,0c-.06,0-.12,0-.181,0-.72.017-.749.005-.636-.753a10.067,10.067,0,0,1,1.456-3.922,9.054,9.054,0,0,1,1.741-2.064,6.7,6.7,0,0,1,4.8-1.745,8.2,8.2,0,0,1,6.806,3.818.868.868,0,0,1,.362.606,8.547,8.547,0,0,1,.927,2.785,2.3,2.3,0,0,1,.037.359C-89.88,310.319-89.777,310.15-90.757,310.15Z" transform="translate(-238.236 -77.08)" fill="#00608f"/>
    <path id="Tracé_30" data-name="Tracé 30" d="M161.845,305.954q0-1.689,0-3.378a2.939,2.939,0,0,0-.085-.9,3.217,3.217,0,0,0-2.349-2.29,3.3,3.3,0,0,0-3.94,1.975,4.056,4.056,0,0,0-.227,1.481q.018,10.707.026,21.414c0,.261-.013.523-.007.784a3.193,3.193,0,0,0,1.866,3,3.252,3.252,0,0,0,2.287.215,3.19,3.19,0,0,0,2.433-3c0-.2,0-.4,0-.6q0-5.4,0-10.8h-.009Q161.845,309.9,161.845,305.954Z" transform="translate(-472.243 -77.057)" fill="#00608f"/>
    <path id="Tracé_31" data-name="Tracé 31" d="M156.407,217.021a4.266,4.266,0,0,0-1.846-.048,3.651,3.651,0,0,0-2.943,3.563,3.154,3.154,0,0,0,.637,2.069A3.743,3.743,0,0,0,156,224.154a3.52,3.52,0,0,0,2.876-2.208A3.607,3.607,0,0,0,156.407,217.021Z" transform="translate(-469.068 -5.022)" fill="#00608f"/>
    <circle id="Ellipse_1" data-name="Ellipse 1" cx="0.728" cy="0.728" r="0.728" transform="translate(-226.527 254.209)" fill="#00608f"/>
  </g>
</svg>