<svg width="357" height="115" viewBox="0 0 357 115" fill="none" xmlns="http://www.w3.org/2000/svg">
<path d="M210.005 14.7473L214.03 0.00415039H223.181L213.775 29.6599H206.997L202.676 15.2133L198.354 29.6599H191.576L182.171 0.00415039H191.322L195.347 14.7473L199.583 0.978553H205.853L210.005 14.7473Z" fill="white"/>
<path d="M235.085 29.6599H226.188V0.00415039H235.085V29.6599Z" fill="white"/>
<path d="M249.151 22.0341H262.453V29.6599H240.254V0.00415039H249.151V22.0341Z" fill="white"/>
<path d="M265.801 29.6599V0.00415039H279.739C288.381 0.00415039 294.821 6.65551 294.821 14.832C294.821 23.0085 288.381 29.6599 279.739 29.6599H265.801ZM274.698 7.62991V22.0341H278.51C283.086 22.0341 285.924 19.1956 285.924 14.832C285.924 10.4684 283.086 7.58755 278.51 7.62991H274.698Z" fill="white"/>
<path d="M198.371 42.0349C203.188 42.0349 206.472 43.9456 209.59 46.6866L204.646 52.3382C202.693 50.1352 200.367 49.5124 198.371 49.5124C193.843 49.5124 190.894 52.8338 190.894 57.0322C190.894 61.2306 193.843 64.5521 198.371 64.5521C200.367 64.5521 202.693 63.9293 204.646 61.7263L209.59 67.3779C206.476 70.1189 203.193 72.0296 198.371 72.0296C188.568 72.0296 182.171 65.1325 182.171 57.0322C182.171 48.932 188.568 42.0349 198.371 42.0349Z" fill="white"/>
<path d="M210.378 57.0322C210.378 48.932 216.275 42.0349 226.079 42.0349C235.882 42.0349 241.783 48.932 241.783 57.0322C241.783 65.1325 235.886 72.0296 226.079 72.0296C216.271 72.0296 210.378 65.1325 210.378 57.0322ZM233.06 57.0322C233.06 52.9609 230.527 49.5124 226.083 49.5124C221.639 49.5124 219.105 52.9609 219.105 57.0322C219.105 61.1036 221.639 64.5521 226.083 64.5521C230.527 64.5521 233.06 61.1036 233.06 57.0322Z" fill="white"/>
<path d="M245.393 71.572V42.4924H259.06C267.533 42.4924 273.849 49.0125 273.849 57.0322C273.849 65.052 267.537 71.572 259.06 71.572H245.393ZM254.116 49.9699V64.0945H257.856C262.343 64.0945 265.126 61.3111 265.126 57.0322C265.126 52.7533 262.343 49.9275 257.856 49.9699H254.116Z" fill="white"/>
<path d="M277.459 71.572V42.4924H298.604V49.9699H286.182V53.7489H297.023V60.396H286.182V64.0945H298.604V71.572H277.459Z" fill="white"/>
<path d="M189.127 103.833C189.703 106.468 191.39 107.866 194.232 107.866C196.207 107.866 197.609 107.21 197.609 105.807C197.609 105.108 197.24 104.202 195.181 103.545L191.932 102.312C190.534 101.859 183.535 100.008 183.455 93.8731C183.455 88.3147 188.144 84.7349 194.444 84.7349C199.875 84.7349 203.332 87.4081 204.98 92.2251L198.066 94.1993C197.49 92.5936 196.668 91.3184 194.609 91.3184C193.211 91.3184 191.894 91.8946 191.894 93.1274C191.894 93.9493 192.47 94.6907 194.241 95.3093L197.452 96.4192C203.875 98.6434 205.891 101.44 206.014 105.515C206.014 111.65 200.498 114.446 194.245 114.446C187.577 114.446 183.052 111.234 182.184 105.43L189.14 103.825L189.127 103.833Z" fill="white"/>
<path d="M224.151 84.735C228.925 84.735 232.175 86.6288 235.263 89.3444L230.366 94.9408C228.43 92.759 226.125 92.1405 224.151 92.1405C219.664 92.1405 216.741 95.4323 216.741 99.5883C216.741 103.744 219.664 107.036 224.151 107.036C226.125 107.036 228.43 106.418 230.366 104.236L235.263 109.832C232.175 112.548 228.925 114.442 224.151 114.442C214.436 114.442 208.099 107.608 208.099 99.5841C208.099 91.5601 214.436 84.7266 224.151 84.7266V84.735Z" fill="white"/>
<path d="M255.264 114.001V103.71H246.825V114.001H238.183V85.1882H246.825V96.6735H255.264V85.1882H263.907V114.001H255.264Z" fill="white"/>
<path d="M267.486 99.5968C267.486 91.5728 273.328 84.7393 283.043 84.7393C292.757 84.7393 298.599 91.5728 298.599 99.5968C298.599 107.621 292.753 114.454 283.043 114.454C273.333 114.454 267.486 107.621 267.486 99.5968ZM289.957 99.5968C289.957 95.5636 287.445 92.149 283.043 92.149C278.641 92.149 276.129 95.5636 276.129 99.5968C276.129 103.63 278.641 107.045 283.043 107.045C287.445 107.045 289.957 103.63 289.957 99.5968Z" fill="white"/>
<path d="M300.739 99.5968C300.739 91.5728 306.581 84.7393 316.296 84.7393C326.01 84.7393 331.852 91.5728 331.852 99.5968C331.852 107.621 326.006 114.454 316.296 114.454C306.586 114.454 300.739 107.621 300.739 99.5968ZM323.21 99.5968C323.21 95.5636 320.698 92.149 316.296 92.149C311.894 92.149 309.382 95.5636 309.382 99.5968C309.382 103.63 311.894 107.045 316.296 107.045C320.698 107.045 323.21 103.63 323.21 99.5968Z" fill="white"/>
<path d="M344.074 106.591H357V114.001H335.432V85.1882H344.074V106.591Z" fill="white"/>
<path d="M72.051 67.7635V38.1331C72.051 35.7946 70.153 33.8966 67.8144 33.8966C65.4759 33.8966 63.5779 35.7946 63.5779 38.1331V67.611C63.5779 77.0966 55.9733 84.8113 46.6275 84.8113C37.2817 84.8113 29.6772 77.0923 29.6772 67.611V25.4235C29.6772 23.085 27.7792 21.187 25.4406 21.187C23.1021 21.187 21.2041 23.085 21.2041 25.4235V67.7635C21.2041 81.8161 32.5877 93.2039 46.6275 93.2039C60.6674 93.2039 72.051 81.8118 72.051 67.7635Z" fill="white"/>
<path d="M69.64 21.187C71.3474 21.187 72.864 20.1575 73.5631 18.5942C76.2321 12.6377 82.1463 8.49009 88.9968 8.49009C98.3426 8.49009 105.947 16.2091 105.947 25.6904V67.7889C105.947 70.1274 107.845 72.0254 110.184 72.0254C112.522 72.0254 114.42 70.1274 114.42 67.7889V25.4489C114.424 11.4006 103.041 0.00854492 89.001 0.00854492C78.5791 0.00854492 69.6273 6.28285 65.7043 15.2601C64.4799 18.0562 66.5897 21.187 69.64 21.187Z" fill="white"/>
<path d="M89.0012 21.187C86.6626 21.187 84.7646 23.085 84.7646 25.4235V67.7592C84.7646 81.8118 96.1482 93.1996 110.188 93.1996C124.228 93.1996 135.612 81.8076 135.612 67.7592V63.5524C135.612 61.2138 133.714 59.3158 131.375 59.3158C129.036 59.3158 127.138 61.2138 127.138 63.5524V67.6067C127.138 77.0923 119.534 84.807 110.188 84.807C100.842 84.807 93.2377 77.0881 93.2377 67.6067V25.4278C93.2377 23.0892 91.3397 21.1912 89.0012 21.1912V21.187Z" fill="white"/>
<path d="M4.23653 38.1414C6.5751 38.1414 8.47307 36.2434 8.47307 33.9049V25.703C8.47307 16.2174 16.0776 8.50262 25.4234 8.50262C34.7692 8.50262 42.3738 16.2216 42.3738 25.703V67.7929C42.3738 70.1315 44.2718 72.0294 46.6103 72.0294C48.9489 72.0294 50.8469 70.1315 50.8469 67.7929V25.4572C50.8469 11.4047 39.4676 0.0168457 25.4234 0.0168457C11.3793 0.0168457 0 11.4047 0 25.4572V33.9049C0 36.2434 1.89797 38.1414 4.23653 38.1414Z" fill="white"/>
<path d="M8.48576 70.0299V55.0791C8.48576 52.6474 6.43104 50.6901 3.96538 50.8511C1.71578 50.9993 0.0126953 52.9693 0.0126953 55.2232V69.4622C0.0126953 81.3033 4.69406 92.2208 12.2944 100.334C13.8831 102.033 16.5691 102.062 18.2171 100.419C19.7846 98.851 19.8481 96.3091 18.323 94.695C12.2309 88.2512 8.48576 79.5705 8.48576 70.0256V70.0299Z" fill="white"/>
<path d="M152.629 4.57122C150.214 2.05048 146.918 0.385525 143.237 0.063548C143.182 0.0593115 143.131 0.0550749 143.076 0.0508384C142.898 0.0381288 142.716 0.0254192 142.538 0.0169461C142.428 0.0127096 142.313 0.00847307 142.203 0.00847307C142.114 0.00847307 142.025 0 141.936 0C141.898 0 141.864 0 141.826 0C141.767 0 141.707 0 141.648 0C141.059 0.0127096 140.483 0.0593115 139.915 0.139806C139.89 0.139806 139.869 0.144042 139.843 0.148279C132.646 1.16505 127.108 7.34615 127.108 14.8236V42.3611C127.108 44.7929 129.163 46.7502 131.629 46.5892C133.878 46.4409 135.581 44.4709 135.581 42.2171V15.0143C135.581 11.5996 138.204 8.65524 141.619 8.48578C143.139 8.40952 144.55 8.87978 145.681 9.7059C145.8 9.79063 145.914 9.88383 146.029 9.97704C146.092 10.0321 146.156 10.083 146.219 10.1423C146.287 10.2058 146.359 10.2694 146.423 10.3371C146.499 10.4134 146.575 10.4939 146.652 10.5786C146.724 10.6591 146.791 10.7396 146.859 10.8201C146.927 10.9006 146.99 10.9853 147.054 11.0701C147.101 11.1336 147.147 11.1929 147.19 11.2565C147.274 11.3793 147.355 11.5064 147.427 11.6335C147.461 11.6886 147.49 11.7437 147.52 11.7987C147.601 11.9428 147.673 12.0911 147.745 12.2436C147.761 12.2859 147.783 12.3283 147.8 12.3707C147.863 12.5232 147.922 12.6757 147.973 12.8325C147.982 12.8536 147.99 12.8748 147.999 12.9002C148.054 13.0782 148.1 13.2604 148.143 13.4425C148.151 13.4807 148.16 13.5188 148.168 13.5569C148.206 13.7391 148.236 13.9255 148.257 14.1161C148.257 14.15 148.266 14.1882 148.266 14.222C148.283 14.4212 148.295 14.6203 148.295 14.8236V69.9367C148.295 71.8474 148.143 73.7242 147.85 75.5543C147.44 78.1429 149.405 80.4899 152.023 80.4899C152.023 80.4899 152.028 80.4899 152.032 80.4899C152.032 80.4899 152.036 80.4899 152.04 80.4899C154.125 80.4899 155.904 78.9732 156.226 76.91C156.582 74.652 156.764 72.3388 156.764 69.9833V14.8321C156.764 10.8498 155.192 7.236 152.634 4.57122H152.629Z" fill="white"/>
<path d="M143.881 90.6661H143.758C142.475 90.6661 141.276 91.2719 140.479 92.2802C140.272 92.5429 140.06 92.8056 139.839 93.0598C139.407 93.5724 138.962 94.0723 138.501 94.5637C138.496 94.568 138.492 94.5722 138.488 94.5764C137.475 95.6483 136.399 96.6608 135.268 97.6013C135.247 97.6183 135.226 97.6395 135.2 97.6564C135.006 97.8174 134.806 97.9741 134.612 98.1351C134.569 98.169 134.523 98.2072 134.48 98.241C134.294 98.3851 134.107 98.5291 133.917 98.6732C133.857 98.7155 133.798 98.7621 133.739 98.8045C133.557 98.9401 133.374 99.0714 133.192 99.2027C133.125 99.2536 133.057 99.3002 132.989 99.3468C132.811 99.4739 132.629 99.5967 132.451 99.7196C132.375 99.7704 132.298 99.8213 132.222 99.8721C132.044 99.9907 131.866 100.109 131.684 100.224C131.604 100.275 131.523 100.325 131.443 100.376C131.265 100.491 131.087 100.601 130.905 100.711C130.82 100.762 130.735 100.813 130.65 100.863C130.472 100.969 130.29 101.075 130.112 101.181C130.023 101.232 129.939 101.279 129.85 101.329C129.668 101.431 129.485 101.533 129.303 101.63C129.214 101.677 129.129 101.723 129.041 101.77C128.854 101.868 128.668 101.965 128.481 102.062C128.397 102.105 128.312 102.147 128.227 102.189C128.032 102.287 127.842 102.38 127.647 102.473C127.575 102.507 127.507 102.537 127.435 102.571C126.736 102.897 126.02 103.202 125.295 103.482C125.232 103.507 125.168 103.532 125.101 103.558C124.927 103.626 124.749 103.689 124.571 103.753C124.448 103.795 124.325 103.842 124.207 103.888C124.046 103.943 123.88 103.998 123.719 104.054C123.58 104.1 123.444 104.147 123.304 104.193C123.147 104.244 122.986 104.291 122.83 104.342C122.681 104.388 122.537 104.431 122.389 104.477C122.232 104.524 122.08 104.566 121.923 104.609C121.771 104.651 121.618 104.693 121.466 104.736C121.313 104.778 121.156 104.816 121.004 104.854C120.847 104.892 120.69 104.931 120.534 104.969C120.381 105.007 120.229 105.041 120.072 105.075C119.911 105.108 119.75 105.147 119.585 105.18C119.432 105.21 119.28 105.244 119.127 105.274C118.962 105.308 118.792 105.337 118.627 105.367C118.479 105.392 118.326 105.422 118.174 105.443C118.004 105.473 117.831 105.498 117.661 105.524C117.513 105.545 117.365 105.57 117.212 105.587C117.034 105.613 116.856 105.634 116.683 105.655C116.538 105.672 116.39 105.693 116.246 105.706C116.06 105.727 115.878 105.744 115.691 105.761C115.551 105.774 115.407 105.791 115.268 105.799C115.073 105.816 114.878 105.829 114.683 105.841C114.547 105.85 114.416 105.863 114.28 105.867C114.064 105.88 113.844 105.888 113.628 105.896C113.514 105.896 113.403 105.905 113.289 105.909C112.959 105.918 112.624 105.922 112.289 105.922C100.512 105.922 90.039 100.245 83.4639 91.488C83.4554 91.5007 83.4469 91.5134 83.4427 91.5261L83.4173 91.488C82.2395 89.9078 80.3839 88.98 78.4139 88.98C76.4439 88.98 74.5714 89.9163 73.3852 91.5007L73.3682 91.5261C66.7973 100.313 56.3119 106.011 44.5174 106.011C40.9375 106.011 37.4763 105.481 34.2099 104.503C32.7356 104.062 31.1342 104.473 30.0454 105.562C27.7916 107.816 28.766 111.641 31.8078 112.577C35.8664 113.823 40.1665 114.492 44.6106 114.484C51.3679 114.471 57.7651 112.95 63.4929 110.239C69.2461 107.519 74.3257 103.6 78.4055 98.8045C86.5608 108.396 98.7154 114.484 112.293 114.484C122.131 114.484 131.218 111.294 138.585 105.888C138.823 105.714 139.03 105.524 139.212 105.325C139.212 105.325 139.221 105.32 139.221 105.316C139.687 104.96 140.14 104.6 140.589 104.227C140.615 104.206 140.644 104.185 140.67 104.164C141.077 103.825 141.475 103.482 141.869 103.13C141.941 103.066 142.017 103.003 142.089 102.935C142.419 102.634 142.741 102.329 143.063 102.02C143.191 101.897 143.326 101.774 143.453 101.651C143.724 101.385 143.991 101.109 144.254 100.834C144.398 100.686 144.546 100.541 144.69 100.389C144.703 100.376 144.716 100.359 144.728 100.347C145.58 99.4357 146.398 98.4952 147.169 97.5166C149.359 94.7501 147.419 90.6831 143.894 90.6831L143.881 90.6661Z" fill="white"/>
</svg>